<?xml version="1.0" encoding="UTF-8" standalone="no"?>
<!-- Created with Inkscape (http://www.inkscape.org/) -->

<svg
   version="1.1"
   id="svg1"
   width="174"
   height="64"
   viewBox="0 0 174 64"
   sodipodi:docname="logo-mid.svg"
   inkscape:version="1.2.2 (b0a8486541, 2022-12-01)"
   xmlns:inkscape="http://www.inkscape.org/namespaces/inkscape"
   xmlns:sodipodi="http://sodipodi.sourceforge.net/DTD/sodipodi-0.dtd"
   xmlns="http://www.w3.org/2000/svg"
   xmlns:svg="http://www.w3.org/2000/svg">
  <sodipodi:namedview
     id="namedview12258"
     pagecolor="#ffffff"
     bordercolor="#000000"
     borderopacity="0.25"
     inkscape:showpageshadow="2"
     inkscape:pageopacity="0.0"
     inkscape:pagecheckerboard="0"
     inkscape:deskcolor="#d1d1d1"
     showgrid="false"
     showguides="true"
     inkscape:zoom="5.299237"
     inkscape:cx="81.426816"
     inkscape:cy="18.776288"
     inkscape:window-width="1920"
     inkscape:window-height="1020"
     inkscape:window-x="0"
     inkscape:window-y="0"
     inkscape:window-maximized="1"
     inkscape:current-layer="g1">
    <sodipodi:guide
       position="87.724893,60.791991"
       orientation="0,-1"
       id="guide13829"
       inkscape:locked="false" />
    <sodipodi:guide
       position="93.268144,53.338088"
       orientation="1,0"
       id="guide13831"
       inkscape:locked="false" />
    <sodipodi:guide
       position="78.950045,56.593273"
       orientation="1,0"
       id="guide13833"
       inkscape:locked="false" />
  </sodipodi:namedview>
  <defs
     id="defs1">
    <rect
       x="58.99889"
       y="176.99667"
       width="128.72485"
       height="79.112152"
       id="rect8" />
    <rect
       x="58.99889"
       y="176.99667"
       width="128.72485"
       height="79.112152"
       id="rect8-3" />
  </defs>
  <g
     id="g1">
    <g
       id="g4"
       transform="matrix(0.17159574,0,0,0.19659832,78.77855,-21.16574)"
       style="fill:#000000">
      <path
         style="fill:#000000;fill-opacity:1"
         d="m 494.1333,414.14045 c 4.54667,-0.19995 11.98667,-0.19995 16.53334,0 4.54666,0.19994 0.82666,0.36354 -8.26667,0.36354 -9.09333,0 -12.81333,-0.1636 -8.26667,-0.36354 z m 0,-282.66665 c 4.54667,-0.19995 11.98667,-0.19995 16.53334,0 4.54666,0.19994 0.82666,0.36354 -8.26667,0.36354 -9.09333,0 -12.81333,-0.1636 -8.26667,-0.36354 z"
         id="path8"
         sodipodi:nodetypes="ssssssss" />
      <path
         style="fill:#000000;fill-opacity:1"
         d="m 467.06391,427.99997 c -1.32679,-1.69179 -1.28906,-1.72952 0.40273,-0.40272 1.7768,1.39346 2.34184,2.26939 1.46394,2.26939 -0.2215,0 -1.0615,-0.84 -1.86667,-1.86667 z m 57.18677,-154.93332 c 0,-75.38666 0.12712,-106.22666 0.28248,-68.53333 0.15537,37.69333 0.15537,99.37333 0,137.06666 -0.15536,37.69333 -0.28248,6.85333 -0.28248,-68.53333 z M 466.13331,119.06393 c 0,-0.2215 0.84,-1.0615 1.86666,-1.86666 1.69179,-1.3268 1.72952,-1.28907 0.40273,0.40272 -1.39346,1.7768 -2.26939,2.34185 -2.26939,1.46394 z"
         id="path7"
         sodipodi:nodetypes="ssssssssssss" />
      <path
         style="fill:#a2a2a2;fill-opacity:1"
         d="M 20.799999,435.09077 C 11.080917,432.71791 2.9180367,423.83663 1.0201794,413.57018 0.33419737,409.85936 0.05691319,358.33772 0.24337187,269.23308 c 0,-24.4657 -0.65107058,-105.27138 -0.65107058,-129.54784 1.44567291,-15.58891 3.57276301,-14.20111 9.28541491,-21.72144 5.0857718,-6.69508 12.7526708,-7.56381 34.3222808,-7.56381 25.101065,0 28.291736,0.72251 35.639582,8.07036 5.638216,5.63821 7.509986,10.85253 7.53699,20.99631 l 0.02343,8.8 H 273.06665 459.73331 v -6.73973 c 0,-13.74482 5.40027,-23.54137 15.80114,-28.66461 4.74062,-2.33513 6.15599,-2.46233 27.39885,-2.46233 21.56961,0 22.58652,0.0953 27.43135,2.57143 6.05382,3.09401 9.41038,6.49153 12.73974,12.89524 l 2.49558,4.8 v 142.39999 142.39999 l -2.49558,4.8 c -3.32936,6.40371 -6.68592,9.80123 -12.73974,12.89524 -4.84483,2.4761 -5.86174,2.57143 -27.43135,2.57143 -21.24286,0 -22.65823,-0.1272 -27.39885,-2.46233 -10.40087,-5.12324 -15.80114,-14.91979 -15.80114,-28.66461 v -6.73973 H 273.06665 86.399995 l -0.02343,8.8 c -0.03504,13.16459 -4.504125,20.96053 -15.299823,26.68928 -4.055012,2.1518 -6.084764,2.35778 -25.210082,2.55837 -11.439999,0.11999 -22.719999,-0.2506 -25.066665,-0.82352 z m 41.70698,-20.97379 c 3.577767,-2.38894 3.62635,-4.27865 3.62635,-141.05033 0,-136.77168 -0.04858,-138.66139 -3.62635,-141.05032 -0.645507,-0.43102 -9.213649,-0.79102 -19.040315,-0.8 -16.456622,-0.0151 -18.035029,0.15203 -19.999999,2.117 -2.111283,2.11128 -2.133333,3.55555 -2.133333,139.73332 0,136.17777 0.02205,137.62204 2.133333,139.73333 1.96497,1.96497 3.543377,2.13204 19.999999,2.11699 9.826666,-0.009 18.394808,-0.36898 19.040315,-0.79999 z m 460.159661,-1.317 c 2.11128,-2.11129 2.13333,-3.55556 2.13333,-139.73333 0,-136.17777 -0.0221,-137.62204 -2.13333,-139.73332 -1.95859,-1.95859 -3.55556,-2.13334 -19.496,-2.13334 -13.98819,0 -17.8234,0.32272 -19.73333,1.66049 l -2.37067,1.66048 v 138.54569 138.54569 l 2.37067,1.66048 c 1.90993,1.33777 5.74514,1.66049 19.73333,1.66049 15.94044,0 17.53741,-0.17475 19.496,-2.13333 z M 459.73331,273.06665 V 169.59999 H 273.06665 86.399995 V 273.06665 376.53331 H 273.06665 459.73331 Z"
         id="path4"
         sodipodi:nodetypes="ssccsssscccssssscccssssscccssssssssssssssssssscccsssccccccccc" />
    </g>
    <text
       xml:space="preserve"
       id="text8"
       style="font-size:56px;font-family:'Liberation Sans';-inkscape-font-specification:'Liberation Sans';text-align:start;letter-spacing:5px;writing-mode:lr-tb;direction:ltr;white-space:pre;shape-inside:url(#rect8);fill:#ffffff;stroke:#a2a2a2;stroke-width:1.22079;stroke-opacity:1"
       transform="translate(-58.865199,-187.06463)"><tspan
         x="58.998047"
         y="227.43834"
         id="tspan14336"><tspan
           style="font-size:26.6667px;fill:#a2a2a2"
           id="tspan14334">book</tspan></tspan></text>
    <text
       xml:space="preserve"
       id="text8-3"
       style="font-size:56px;font-family:'Liberation Sans';-inkscape-font-specification:'Liberation Sans';text-align:start;letter-spacing:5px;writing-mode:lr-tb;direction:ltr;white-space:pre;shape-inside:url(#rect8-3);fill:#a2a2a2;stroke:#a2a2a2;stroke-width:1.22079;stroke-opacity:1;fill-opacity:1"
       transform="translate(39.82342,-188.36245)"><tspan
         x="58.998047"
         y="227.43834"
         id="tspan14340"><tspan
           style="font-size:26.6667px"
           id="tspan14338">pub</tspan></tspan></text>
  </g>
</svg>
