<?xml version="1.0" encoding="utf-8"?>
<!-- Generator: Adobe Illustrator 27.4.1, SVG Export Plug-In . SVG Version: 6.00 Build 0)  -->
<svg version="1.1" xmlns="http://www.w3.org/2000/svg" xmlns:xlink="http://www.w3.org/1999/xlink" x="0px" y="0px"
	 viewBox="0 0 355.4 350" style="enable-background:new 0 0 355.4 350;" xml:space="preserve">
<style type="text/css">
	.st0{display:none;}
	.st1{display:inline;stroke:#000000;stroke-width:1.2;stroke-miterlimit:10;}
	.st2{fill:#FFFFFF;}
	.st3{fill:#FFFFFF;stroke:#FFFFFF;stroke-width:11;stroke-miterlimit:10;}
	.st4{fill:none;}
	.st5{fill:#FFFFFF;stroke:#FFFFFF;stroke-width:2;stroke-miterlimit:10;}
	.st6{font-family:'AmericanTypewriter';}
	.st7{font-size:73px;}
	.st8{letter-spacing:2;}
	.st9{fill:#FFFFFF;stroke:#FFFFFF;stroke-miterlimit:10;}
	.st10{display:inline;stroke:#000000;stroke-width:6.1374;stroke-miterlimit:10;}
	.st11{fill:#FFFFFF;stroke:#FFFFFF;stroke-width:9;stroke-miterlimit:10;}
	.st12{fill:#FFFFFF;stroke:#FFFFFF;stroke-width:9.6;stroke-miterlimit:10;}
</style>
<g id="Layer_6" class="st0">
	<rect class="st1" width="360.5" height="360.5"/>
</g>
<g id="Layer_1">
	<g>
		<g>
			<path class="st2" d="M59.5,124.7c26.1,0,52.2,0,78.3,0c41.7,0,83.3,0,125,0c9.6,0,19.3,0,28.9,0c-2-2-4-4-6-6
				c0,44.5,0,89.1,0,133.6c0,6.2,0,12.4,0,18.6c2-2,4-4,6-6c-6.7,0-13.5,0-20.2,0c-2.5,0-5.2,1.9-5.8,4.4c-0.5,2-1.1,4-1.9,5.9
				c-1,2.8-0.9,2.5-2.2,5.3c-1.3,2.7-2.8,5.4-4.3,8c-8.7,14.2-21.9,25.3-37.2,31.6c-23.4,9.7-51.7,10.1-75.9,3.1
				c-17.2-5-32.9-15-43.5-29.4c-2.2-2.9-4.1-6-5.9-9.1c-0.7-1.3-1.5-2.7-2.1-4.1c-0.3-0.6-0.6-1.3-0.9-1.9c-0.4-0.9-0.7-1.6-0.4-0.9
				c-1-2.3-1.9-4.7-2.5-7.2c-0.6-2.5-3.2-4.4-5.8-4.4c-7.8,0-15.6,0-23.5,0c2,2,4,4,6,6c0-44.8,0-89.5,0-134.3c0-6.4,0-12.8,0-19.1
				c0-7.7-12-7.7-12,0c0,44.8,0,89.5,0,134.3c0,6.4,0,12.8,0,19.1c0,3.2,2.7,6,6,6c7.8,0,15.6,0,23.5,0c-1.9-1.5-3.9-2.9-5.8-4.4
				c6.5,26.9,30.4,48.5,55.3,58.2c25.4,9.9,56.4,10.6,82.4,2.7c19.6-6,36.7-17.8,48.8-34.4c5.9-8.1,11.3-17.8,13.5-27.7
				c-1.9,1.5-3.9,2.9-5.8,4.4c6.7,0,13.5,0,20.2,0c3.2,0,6-2.7,6-6c0-44.5,0-89.1,0-133.6c0-6.2,0-12.4,0-18.6c0-3.2-2.7-6-6-6
				c-26.1,0-52.2,0-78.3,0c-41.7,0-83.3,0-125,0c-9.6,0-19.3,0-28.9,0C51.8,112.7,51.8,124.7,59.5,124.7z"/>
		</g>
	</g>
	<line class="st3" x1="91.3" y1="86.5" x2="91.3" y2="118.7"/>
	<line class="st3" x1="116.5" y1="86.5" x2="116.5" y2="118.7"/>
	<line class="st3" x1="236" y1="86.5" x2="236" y2="118.7"/>
	<line class="st3" x1="261.1" y1="86.5" x2="261.1" y2="118.7"/>
</g>
<g id="BookPub">
	<rect x="4" y="21.6" class="st4" width="350.9" height="65.4"/>
	<text transform="matrix(1 0 0 1 16.7724 71.2764)" class="st5 st6 st7 st8">BookPub</text>
</g>
<g id="Layer_4">
	<path class="st9" d="M145.1,153.8c-12.5,0-22.6,10.1-22.6,22.6v75.2c0,12.5,10.1,22.6,22.6,22.6h67.7h7.5c4.2,0,7.5-3.4,7.5-7.5
		s-3.4-7.5-7.5-7.5v-15c4.2,0,7.5-3.4,7.5-7.5v-75.2c0-4.2-3.4-7.5-7.5-7.5h-7.5H145.1z M145.1,244h60.2v15h-60.2
		c-4.2,0-7.5-3.4-7.5-7.5C137.5,247.4,140.9,244,145.1,244z M152.6,187.7c0-2.1,1.7-3.8,3.8-3.8h45.1c2.1,0,3.8,1.7,3.8,3.8
		s-1.7,3.8-3.8,3.8h-45.1C154.3,191.4,152.6,189.7,152.6,187.7z M156.3,198.9h45.1c2.1,0,3.8,1.7,3.8,3.8c0,2.1-1.7,3.8-3.8,3.8
		h-45.1c-2.1,0-3.8-1.7-3.8-3.8C152.6,200.6,154.3,198.9,156.3,198.9z"/>
</g>
<g id="Layer_2" class="st0">
	<path class="st10" d="M178,76c53,0,106,0,158.9,0c7.1,0,10.7,1.7,10.8,5.1c0,3.4-3.9,5.3-11,5.3c-20.8,0-41.6,0.1-62.5-0.1
		c-3.9,0-4.7,0.8-4.5,3.6c0.3,6.4,0.2,12.8,0,19.2c-0.1,2.1,0.7,2.9,3.6,2.8c6.2-0.2,12.3-0.1,18.5,0c6.8,0,9.5,2,9.5,7.2
		c0,50.6,0,101.2,0,151.8c0,5.2-2.4,6.9-9.3,7c-4.2,0-9-0.9-12.3,0.4c-3,1.2-2.5,5.3-3.5,8.1c-5.6,15.5-16.9,28.3-32.6,38.6
		c-14.3,9.3-30.9,15.4-49.8,17.4c-6.3,0.7-12.6,1.7-19,1.4c-23.6-0.9-44.7-6.7-63.3-18.3c-19.3-12-30.5-27.6-35.6-46
		c-0.4-1.6-1.3-1.8-3-1.8c-3.5,0-7,0-10.5,0c-7.4,0-8.9-1.2-8.9-7c0-6.1,0-12.3,0-18.4c0-44.1,0-88.1,0-132.2
		c0-7.5,1.1-8.4,10.7-8.4c5.5,0,11-0.1,16.5,0c2.7,0.1,3.3-0.6,3.3-2.6c-0.1-6.7-0.3-13.3,0-20c0.1-2.8-1.3-3-4.3-3
		c-22,0.1-44,0-66,0.1c-4.1,0-7.1-0.8-7.8-4.3C5,78.3,12.9,76.6,18.1,76c4.1-0.5,1.8,0,5.9,0C75.3,76,126.6,76,178,76z M177.1,122.4
		c-35.3,0-70.6,0.1-106-0.1c-4.3,0-5.5,0.8-5.4,4.2c0.2,43.5,0.1,87.1,0.1,130.6c0,3.3-1.4,7.5,0.7,9.7c2.3,2.4,8.1,0.7,12.3,0.8
		c4.4,0.1,6.6,2.1,7.8,4.9c1,2.3,1.3,4.8,2.1,7.3c5.1,15.7,15.1,29.1,31.9,39c18.9,11.1,40.1,16.6,64.3,14.6
		c19.1-1.6,36.2-6.8,50.4-16.6c14.5-9.9,23.8-22.2,28.6-37c3.8-11.6,0.4-12.5,19.3-12c4,0.1,4.5-1,4.5-3.6
		c-0.1-46.1-0.1-92.2,0-138.3c0-3-1.1-3.5-4.7-3.5C247.8,122.4,212.5,122.4,177.1,122.4z M176.6,111.7c13.8,0,27.7-0.1,41.5,0
		c2.7,0,3.7-0.4,3.7-2.7c-0.2-6.8-0.1-13.6,0-20.4c0-1.8-0.2-2.7-3.1-2.7C190.8,86,163,86,135.2,86c-2.6,0-3.4,0.7-3.4,2.7
		c0.1,6.4,0.2,12.8,0,19.2c-0.1,2.9,0.8,4,4.9,3.9C149.9,111.5,163.3,111.7,176.6,111.7z M118.5,100.3c0-4.3-0.1-7.9,0-11.4
		c0.1-1.8-0.5-2.5-3-2.4c-5,0.1-10,0.2-15,0c-2.7-0.1-3.3,0.7-3.3,2.6c0.1,6.3,0.3,12.5,0,18.8c-0.2,3.2,0.7,4.6,5.3,4.2
		c5.1-0.4,12.1,1.3,14.9-0.7C120.8,109,118.1,103.6,118.5,100.3z M235.2,98.4c0,4.2,0.1,7.7,0,11.1c-0.1,1.8,0.5,2.5,3,2.4
		c5-0.1,10-0.2,15,0c2.8,0.1,3.3-0.7,3.3-2.6c-0.1-6.4-0.2-12.8,0-19.2c0.1-2.9-0.8-4-4.8-3.8c-5.3,0.3-12.4-1.3-15.4,0.7
		C232.8,89.5,235.6,95,235.2,98.4z"/>
</g>
<g id="Layer_3">
	<line class="st11" x1="13.7" y1="86.5" x2="336.6" y2="86.5"/>
	<circle class="st12" cx="335.3" cy="87.9" r="5.2"/>
</g>
</svg>
