
<svg version="1.1" id="Layer_1" xmlns="http://www.w3.org/2000/svg" xmlns:xlink="http://www.w3.org/1999/xlink" x="0px" y="0px"
	 width="51.012px" height="73.994px" viewBox="0 0 51.012 73.994" enable-background="new 0 0 51.012 73.994" xml:space="preserve">
<g>
	<g>
		<path fill-rule="evenodd" clip-rule="evenodd" d="M35.372,23.883c-0.63,0.247-0.571-0.468-1.87-0.37
			c-1.431,0.108-1.896,1.101-1.7,2.098c0.48,2.445,6.011,2,6.46-0.123c0.553-2.609-2.923-5.136-5.95-4.688
			c-4.604,0.682-9.323,4.356-8.67,9.25c0.448,3.357,4.95,8.189,0,10.236c2.824-3.927-1.999-8.075-1.53-12.826
			c0.246-2.497,1.729-4.262,3.23-5.426c1.443-1.121,3.47-2.453,6.29-2.714c5.039-0.466,8.465,1.664,8.67,4.687
			c0.197,2.922-2.975,5.214-6.8,4.934c-1.853-0.137-4.187-1.186-4.42-2.96c-0.185-1.405,1.619-3.132,3.4-3.33
			C33.519,22.534,35.307,22.54,35.372,23.883z"/>
		<path fill-rule="evenodd" clip-rule="evenodd" d="M20.582,12.167c0.151-2.715,6.109-1.373,6.63,0.616
			c0.641,2.449-1.933,4.065-4.25,4.316c-4.958,0.537-10.674-3.2-8.5-7.399c1.946-3.759,10.011-3.867,13.6-1.48
			c3.638,2.42,4.192,7.032,1.7,9.99c-2.363,2.805-6.62,4.002-8.33,6.783c-2.517,4.095,1.506,8.082,2.04,12.087
			c0.338,2.53-0.891,4.035-3.23,4.933c2.779-4.504-3.974-8.124-3.4-13.937c0.276-2.798,2.634-4.721,5.27-6.536
			c2.383-1.641,5.672-3.128,6.97-5.18c2.429-3.841-2.34-8.896-7.82-7.894c-1.58,0.289-3.173,1.724-3.4,2.837
			c-0.448,2.199,1.315,4.436,4.08,4.439c2.245,0.004,3.797-1.483,3.4-2.96C24.963,11.378,21.651,11.077,20.582,12.167z"/>
		<path fill-rule="evenodd" clip-rule="evenodd" fill="#FFFFFF" d="M0.352,6c16.887,0,33.773,0,50.66,0c0,12.333,0,24.667,0,37
			c-17,0-34,0-51,0c0-12.251,0-24.502,0-36.754C-0.051,6.037,0.144,6.014,0.352,6z M25.342,12.783c0.397,1.477-1.155,2.964-3.4,2.96
			c-2.765-0.004-4.528-2.24-4.08-4.439c0.227-1.113,1.82-2.548,3.4-2.837c5.48-1.002,10.249,4.053,7.82,7.894
			c-1.297,2.052-4.586,3.539-6.97,5.18c-2.636,1.815-4.994,3.738-5.27,6.536c-0.574,5.812,6.179,9.433,3.4,13.937
			c2.339-0.897,3.568-2.402,3.23-4.933c-0.534-4.005-4.557-7.992-2.04-12.087c1.71-2.781,5.967-3.979,8.33-6.783
			c2.492-2.958,1.938-7.57-1.7-9.99c-3.589-2.387-11.654-2.278-13.6,1.48c-2.174,4.199,3.542,7.937,8.5,7.399
			c2.317-0.251,4.891-1.867,4.25-4.316c-0.521-1.989-6.479-3.331-6.63-0.616C21.651,11.077,24.963,11.378,25.342,12.783z
			 M32.481,22.65c-1.781,0.198-3.584,1.925-3.4,3.33c0.233,1.774,2.568,2.823,4.42,2.96c3.825,0.28,6.997-2.012,6.8-4.934
			c-0.205-3.022-3.632-5.152-8.67-4.687c-2.82,0.261-4.847,1.593-6.29,2.714c-1.5,1.164-2.984,2.929-3.23,5.426
			c-0.469,4.751,4.354,8.899,1.53,12.826c4.95-2.047,0.448-6.879,0-10.236c-0.653-4.894,4.065-8.568,8.67-9.25
			c3.027-0.448,6.503,2.078,5.95,4.688c-0.449,2.123-5.98,2.568-6.46,0.123c-0.196-0.997,0.27-1.989,1.7-2.098
			c1.298-0.098,1.24,0.617,1.87,0.37C35.307,22.54,33.519,22.534,32.481,22.65z"/>
	</g>
</g>
<g id="XMLID_2_">
	<g>
		<path d="M40.377,52.478c1.667,0.497,3.177,1.079,4.432,2.12c1.251,1.038,2.729,2.617,2.505,5.011
			c-0.32,3.432-4.472,4.911-8.238,4.672c-1.504,2.621-3.495,4.843-6.262,6.311c-2.72,1.444-6.447,2.27-10.406,1.541
			c-3.39-0.623-6.128-2.192-8.189-4.335c-2.076-2.158-3.607-4.969-3.902-8.623c1.09,3.271,3.033,5.721,5.637,7.563
			c2.593,1.836,5.929,3.041,10.309,2.843c3.882-0.177,7.078-1.828,9.346-3.808c2.417-2.108,4.114-4.801,4.77-8.38
			c0.203,2.225-0.284,4.18-0.867,5.779c2.485-0.626,5.319-2.009,5.012-5.347c-0.242-2.585-2.478-3.939-4.193-5.154
			c0-0.033,0-0.065,0-0.098C40.319,52.518,40.339,52.488,40.377,52.478z"/>
		<path d="M33.199,46.312c1.958,0.59,5.496,2.133,5.684,4.528c0.105,1.35-0.834,2.355-1.639,2.986
			c-4.393,3.451-14.861,3.879-21.051,1.639c-1.943-0.703-4.242-1.864-4.722-3.758c-0.408-1.613,0.946-3.005,1.783-3.613
			c1.253-0.91,2.959-1.575,4.817-2.072c1.86-0.497,4.02-0.752,6.215-0.77C27.396,45.227,30.397,45.47,33.199,46.312z"/>
	</g>
	<g>
	</g>
</g>
</svg>
