<?xml version="1.0" encoding="utf-8"?>
<!-- Generator: Adobe Illustrator 27.2.0, SVG Export Plug-In . SVG Version: 6.00 Build 0)  -->
<svg version="1.1" id="Layer_1" xmlns="http://www.w3.org/2000/svg" xmlns:xlink="http://www.w3.org/1999/xlink" x="0px" y="0px"
	 viewBox="0 0 300 300" xml:space="preserve">
<style type="text/css">
	.st0{fill:#F9D1C5;}
	.st1{fill-opacity:0.1;}
	.st2{fill:#8B5CF6;}
	.st3{display:none;fill:#8B5CF6;}
	.st4{display:none;fill:#F4F4F4;}
	.st5{fill-opacity:0.16;}
	.st6{fill-opacity:0.6;}
	.st7{fill:#686868;}
	.st8{fill:url(#react-path-38_00000142875943282937238020000010562878344261737383_);}
</style>
<g id="Avataaar">
	<g id="Body" transform="translate(32.000000, 36.000000)">
		<g>
			<path id="react-path-3_00000111904657828831454720000008012207714065571235_" class="st0" d="M154.6,174.8v24.8h-7.7l0,0
				c41.6,0,75.2,6.2,75.2,46v9h-209v-9c0-39.8,33.6-46,75.2-46l0,0h-5.7v-23.2c-18-8.2-21-20.1-23.2-39.9
				c-6.1-0.8-10.8-5.8-10.8-11.9v-14c0-5.9,4.5-10.9,10.4-11.8v-6.2l0,0c0-30.9,26.2-56,58.5-56l0,0l0,0c32.3,0,58.5,25.1,58.5,56
				v6.2c6,1,10.4,5.9,10.4,11.8v14c0,6.1-4.7,11.1-10.8,11.9C173.6,156.3,172.5,166.6,154.6,174.8z"/>
		</g>
		<path id="Neck-Shadow" class="st1" d="M173.6,116.1v23c0,30.9-25.1,56-56,56s-56-25.1-56-56v-23v15c0,30.9,25.1,56,56,56
			s56-25.1,56-56V116.1z"/>
	</g>
	<g id="Clothing_x2F_Hoodie" transform="translate(0.000000, 170.000000)">
		<g id="Hoodie">
			<path id="react-path-119_00000178198188135385493300000016021344596200348343_" class="st2" d="M114,26.8
				C87.2,29,66.5,34.8,66.1,49.6C27.2,61.1,0,88.1,0,119.5l0,0v9.5h300v-9.5c0-31.4-27.2-58.4-66-70c-0.5-14.9-21.2-20.7-47.9-22.8
				v20l0,0c0,14-16,25.3-36,25.3l0,0c-20,0-36-11.3-36-25.3V26.8H114z"/>
		</g>
		<g id="Color_x2F_Palette_x2F_Gray-01">
			<rect id="_xD83D__xDD8D_Color" x="-51.8" y="14.1" class="st3" width="402.8" height="115.9"/>
		</g>
		<path id="Straps" class="st4" d="M114.5,74.9v50.9h-8.2V71.2C108.8,72.6,111.5,73.8,114.5,74.9z M193,71.2v42.5
			c0,2-1.9,3.7-4.1,3.7c-2.2,0-4.1-1.7-4.1-3.7V74.9C187.7,73.8,190.4,72.6,193,71.2z"/>
		<path id="Shadow" class="st5" d="M108.9,26.4c-15.1,3-25.6,9-25.6,20.7c0,20.8,33.1,37.6,66.7,37.6s66.7-16.9,66.7-37.6
			c0-11.7-10.4-17.6-25.6-20.7c9.1,3.6,15,9.5,15,19.4c0,21.5-27.9,38.9-56.1,38.9S93.9,67.3,93.9,45.8
			C93.9,35.9,99.8,30,108.9,26.4z"/>
	</g>
	<g id="Face" transform="translate(76.000000, 82.000000)">
		<g id="Mouth_x2F_Twinkle" transform="translate(2.000000, 52.000000)">
			<path id="Mouth" class="st6" d="M57.6,55.1c0,5.4,6.2,9,14,9s14-3.6,14-9c0-1.1-0.9-2-2-2c-1.3,0-1.9,0.9-2,2
				c-1.2,2.9-4.3,4.7-10,5c-5.7-0.3-8.8-2.1-10-5c-0.1-1.1-0.7-2-2-2C58.5,53.1,57.6,54,57.6,55.1z"/>
		</g>
		<g id="Nose_x2F_Default" transform="translate(28.000000, 40.000000)">
			<path id="Nose" class="st5" d="M36.6,46.1c0,4.4,4,8,8.9,8l0,0c4.9,0,8.9-3.6,8.9-8"/>
		</g>
		<g id="Eyes_x2F_Side-_xD83D__xDE12_" transform="translate(0.000000, 8.000000)">
			<path id="Eye" class="st6" d="M44.8,59.4c-0.8,1-1.2,2.3-1.2,3.7c0,3.3,2.7,6,6,6s6-2.7,6-6c0-0.3,0-0.6-0.1-0.9
				c0-0.2,0-0.5-0.1-0.7c0-0.1-0.1-0.2-0.1-0.4c-0.3-1-0.9-1.8-1.6-2.5c-2.1-2.2-5.5-3.6-9-3.6c-4.8,0-9,2.6-10.8,6.4
				c-0.5,1.1,0.4,1.9,1.3,1.1c2.4-2,5.8-3.2,9.6-3.2C44.7,59.4,44.8,59.4,44.8,59.4z"/>
			<path id="Eye_00000119812921154908869370000001853008906537596803_" class="st6" d="M102.8,59.4c-0.8,1-1.2,2.3-1.2,3.7
				c0,3.3,2.7,6,6,6s6-2.7,6-6c0-0.3,0-0.6-0.1-0.9c0-0.2,0-0.5-0.1-0.7c0-0.1-0.1-0.2-0.1-0.4c-0.3-1-0.9-1.8-1.6-2.5
				c-2.1-2.2-5.5-3.6-9-3.6c-4.8,0-9,2.6-10.8,6.4c-0.5,1.1,0.4,1.9,1.3,1.1c2.4-2,5.8-3.2,9.6-3.2
				C102.7,59.4,102.8,59.4,102.8,59.4z"/>
		</g>
		<g id="Eyebrow_x2F_Natural_x2F_Default-Natural">
			<path id="Eyebrow" class="st6" d="M44.1,45.2c-5.8,0.3-15.2,4.5-15,10.3c0,0.2,0.3,0.3,0.4,0.1c2.8-3,22.3-5.9,29.2-4.4
				c0.6,0.1,1.1-0.5,0.7-0.9C56.1,46.6,49.3,45,44.1,45.2"/>
			<path id="Eyebrow_00000005253551677941515340000010607011989824801434_" class="st6" d="M104.1,45.2c5.8,0.3,15.2,4.5,15,10.3
				c0,0.2-0.3,0.3-0.4,0.1c-2.8-3-22.3-5.9-29.2-4.4c-0.6,0.1-1.1-0.5-0.7-0.9C92.1,46.6,98.9,45,104.1,45.2"/>
		</g>
	</g>
	<g id="Top">
		<g id="Mask_00000121263668247458620920000013434183198347850914_">
		</g>
		<g id="Top_x2F_Short-Hair_x2F_Short-Flat">
			<g transform="translate(-1.000000, 0.000000)">
				<g id="Facial-Hair_x2F_Beard-Light" transform="translate(49.000000, 72.000000)">
					<g id="Lite-Beard">
						<path id="react-path-52_00000130632576194729184510000008948835780375368084_" class="st7" d="M119,137.3
							c-2.5,2.3-5.2,3.3-8.6,2.6c-0.6-0.1-3-4.5-8.9-4.5s-8.3,4.4-8.9,4.5c-3.4,0.7-6.1-0.3-8.6-2.6c-4.7-4.3-8.7-10.3-6.3-16.7
							c1.2-3.4,3.2-7.1,6.9-8.2c3.9-1.2,9.3,0,13.3-0.8c1.3-0.3,2.7-0.7,3.6-1.5c0.9,0.8,2.3,1.2,3.6,1.5c3.9,0.8,9.4-0.4,13.3,0.8
							c3.6,1.1,5.6,4.8,6.9,8.2C127.7,127,123.8,133,119,137.3 M157.7,65.1c-3.4,8.4-2.1,18.9-2.7,27.7c-0.5,7.2-2,17.9-8.4,22.5
							c-3.3,2.4-9.2,6.3-13.4,5.2c-2.9-0.8-3.2-9.2-7.1-12.3c-4.4-3.6-9.8-5.1-15.3-4.9c-2.4,0.1-7.2,0.1-9.1,1.9
							c-2-1.8-6.8-1.8-9.1-1.9c-5.5-0.2-10.9,1.3-15.3,4.9c-3.8,3.1-4.2,11.5-7.1,12.3c-4.3,1.1-10.2-2.9-13.4-5.2
							c-6.4-4.6-7.9-15.4-8.4-22.5c-0.8-8.8,0.5-19.3-2.9-27.7c-1.7,0-0.6,16.1-0.6,16.1v20.4c0,15.3,9.6,38.2,30.8,46.9
							c5.2,2.1,16.9,5.6,25.9,5.6s20.7-3.1,25.9-5.3c21.2-8.7,30.7-32,30.8-47.2V81.2C158.2,81.2,159.3,65.1,157.7,65.1"/>
					</g>
				</g>
				<g id="Short-Hair">
					
						<radialGradient id="react-path-38_00000044900511703053024310000001443670611802545581_" cx="153.1048" cy="-305.104" r="71.9723" gradientTransform="matrix(1 0 0 -1 -3 -208)" gradientUnits="userSpaceOnUse">
						<stop  offset="0.5471" style="stop-color:#000000"/>
						<stop  offset="0.5497" style="stop-color:#020202"/>
						<stop  offset="0.6496" style="stop-color:#4E4E4E"/>
						<stop  offset="0.7431" style="stop-color:#8D8D8D"/>
						<stop  offset="0.8275" style="stop-color:#BEBEBE"/>
						<stop  offset="0.9012" style="stop-color:#E1E1E1"/>
						<stop  offset="0.9611" style="stop-color:#F7F7F7"/>
						<stop  offset="1" style="stop-color:#FFFFFF"/>
					</radialGradient>
					
						<path id="react-path-38_00000177441972831364942130000006795078034635257533_" style="fill:url(#react-path-38_00000044900511703053024310000001443670611802545581_);" d="
						M197.7,79c-2.8-2.8-6-5.2-9.1-7.6c-0.7-0.5-1.4-1-2.1-1.6c-0.2-0.1-1.7-1.2-1.9-1.7c-0.5-1-0.2-0.2-0.1-1.4
						c0.1-1.5,3.1-5.7,0.9-6.7c-1-0.4-2.8,0.7-3.8,1.1c-1.9,0.7-3.8,1.4-5.7,1.9c0.9-1.9,2.7-5.6-0.6-4.6c-2.6,0.8-5,2.8-7.6,3.7
						c0.9-1.4,4.3-5.8,1.2-6.1c-1-0.1-3.8,1.7-4.9,2.1c-3.1,1.2-6.3,1.9-9.6,2.5c-11.2,2-24.3,1.4-34.7,6.5
						c-8,3.9-15.9,10-20.5,17.8c-4.4,7.5-6.1,15.7-7,24.3c-0.7,6.3-0.7,12.8-0.4,19.1c0.1,2.1,0.3,11.6,3.3,8.7
						c1.5-1.4,1.5-7.3,1.9-9.2c0.8-3.9,1.5-7.8,2.7-11.6c2.2-6.7,4.8-13.8,10.3-18.4c3.5-3,6-6.9,9.4-9.9c1.5-1.3,0.4-1.2,2.8-1
						c1.6,0.1,3.3,0.2,4.9,0.2c3.8,0.1,7.6,0.1,11.4,0.1c7.6,0,15.3,0.1,22.9-0.3c3.4-0.2,6.8-0.3,10.2-0.6c1.9-0.2,5.2-1.4,6.8-0.5
						c1.4,0.8,2.9,3.6,3.9,4.7c2.4,2.7,5.3,4.7,8.1,6.9c5.9,4.6,8.9,10.3,10.7,17.5c1.8,7.1,1.3,13.7,3.5,20.8
						c0.4,1.2,1.4,3.4,2.7,1.5c0.2-0.4,0.2-2.3,0.2-3.4c0-4.5,1.1-7.9,1.1-12.5C208.5,107.6,208.1,89.6,197.7,79z"/>
				</g>
			</g>
		</g>
	</g>
</g>
</svg>
